<svg width="604" height="104" viewBox="0 0 604 104" fill="none" xmlns="http://www.w3.org/2000/svg">
<path d="M0.2 102V8.55H32C39.2 8.55 45.15 9.79999 49.85 12.3C54.55 14.8 58 18.15 60.2 22.35C62.5 26.45 63.65 31 63.65 36C63.65 40.9 62.55 45.4 60.35 49.5C58.15 53.5 54.75 56.75 50.15 59.25C45.55 61.65 39.75 62.85 32.75 62.85H17.45V102H0.2ZM17.45 48.75H31.55C36.35 48.75 40 47.55 42.5 45.15C45 42.75 46.25 39.7 46.25 36C46.25 32.3 45 29.25 42.5 26.85C40 24.45 36.4 23.25 31.7 23.25H17.45V48.75ZM95.6 102V88.65H112.7V45.6H96.5V32.25H129.8V88.65H145.4V102H95.6ZM120.5 20.7C117.5 20.7 114.95 19.7 112.85 17.7C110.85 15.7 109.85 13.3 109.85 10.5C109.85 7.59999 110.85 5.19999 112.85 3.29999C114.85 1.29999 117.4 0.299995 120.5 0.299995C123.3 0.299995 125.75 1.29999 127.85 3.29999C130.05 5.3 131.15 7.7 131.15 10.5C131.15 13.3 130.05 15.7 127.85 17.7C125.75 19.7 123.3 20.7 120.5 20.7ZM181.25 102V32.25H198.2V41.85C200.7 38.45 203.6 35.75 206.9 33.75C210.2 31.65 214 30.6 218.3 30.6C222.3 30.6 226 31.6 229.4 33.6C232.9 35.5 235.7 38.6 237.8 42.9C239.9 47.2 240.95 52.85 240.95 59.85V102H224V60.15C224 54.45 223.1 50.3 221.3 47.7C219.5 45 217 43.65 213.8 43.65C211.3 43.65 208.85 44.35 206.45 45.75C204.05 47.05 202.05 48.95 200.45 51.45C198.95 53.95 198.2 56.95 198.2 60.45V102H181.25ZM303.65 103.65C296.95 103.65 290.95 102.25 285.65 99.45C280.45 96.65 276.35 92.55 273.35 87.15C270.35 81.75 268.85 75.25 268.85 67.65C268.85 59.85 270.3 53.2 273.2 47.7C276.2 42.2 280.15 38 285.05 35.1C290.05 32.1 295.6 30.6 301.7 30.6C307.1 30.6 312.05 31.85 316.55 34.35C321.15 36.85 324.8 40.65 327.5 45.75C330.3 50.75 331.7 57 331.7 64.5C331.7 65.5 331.65 66.7 331.55 68.1C331.55 69.5 331.5 70.7 331.4 71.7H285.2C285.4 76.1 286.45 79.7 288.35 82.5C290.25 85.2 292.6 87.2 295.4 88.5C298.2 89.8 301.2 90.45 304.4 90.45C307.5 90.45 310.45 89.95 313.25 88.95C316.05 87.95 318.65 86.25 321.05 83.85L329.75 92.25C326.35 96.25 322.45 99.15 318.05 100.95C313.65 102.75 308.85 103.65 303.65 103.65ZM285.5 58.95H315.2C315.2 54.05 313.95 50.3 311.45 47.7C308.95 45.1 305.45 43.8 300.95 43.8C297.05 43.8 293.65 45.05 290.75 47.55C287.85 49.95 286.1 53.75 285.5 58.95ZM362.45 102V88.65H382.1V14.7H363.35V1.35H399.2V88.65H418.7V102H362.45ZM472.7 103.8C465 103.8 459 102 454.7 98.4C450.5 94.8 448.4 90.05 448.4 84.15C448.4 76.75 451.7 70.65 458.3 65.85C465 60.95 474.7 58.5 487.4 58.5C488.1 58.5 489 58.5 490.1 58.5C491.3 58.5 492.55 58.55 493.85 58.65C493.15 52.85 491.5 48.95 488.9 46.95C486.3 44.85 482.8 43.8 478.4 43.8C475.2 43.8 472.2 44.35 469.4 45.45C466.6 46.45 463.8 48.35 461 51.15L451.7 40.95C455.7 37.25 460.05 34.6 464.75 33C469.45 31.4 474.25 30.6 479.15 30.6C484.95 30.6 490.25 31.55 495.05 33.45C499.85 35.25 503.65 38.45 506.45 43.05C509.25 47.55 510.65 53.8 510.65 61.8V102H493.1V94.5C490.5 98 487.5 100.45 484.1 101.85C480.7 103.15 476.9 103.8 472.7 103.8ZM465.35 82.05C465.35 85.25 466.35 87.5 468.35 88.8C470.45 90 473 90.6 476 90.6C481.4 90.6 485.6 89 488.6 85.8C491.6 82.5 493.4 77.35 494 70.35C492.7 70.35 491.45 70.35 490.25 70.35C489.05 70.25 488 70.2 487.1 70.2C479.1 70.2 473.45 71.3 470.15 73.5C466.95 75.7 465.35 78.55 465.35 82.05ZM574.85 103.8C571.15 103.8 567.65 103 564.35 101.4C561.05 99.8 558.25 97.45 555.95 94.35L553.1 102H540.2V1.35H558.65V2.69999C558.05 3.3 557.65 4 557.45 4.8C557.35 5.5 557.3 6.65 557.3 8.25V40.05C559.4 37.15 562.05 34.85 565.25 33.15C568.55 31.35 572 30.5 575.6 30.6C584.1 30.7 590.9 33.7 596 39.6C601.2 45.4 603.8 54.2 603.8 66C603.8 74.5 602.45 81.55 599.75 87.15C597.05 92.75 593.5 96.95 589.1 99.75C584.7 102.45 579.95 103.8 574.85 103.8ZM571.4 90.6C575.6 90.6 579.2 88.9 582.2 85.5C585.3 82 586.85 76 586.85 67.5C586.85 59.9 585.5 54 582.8 49.8C580.2 45.5 576.5 43.35 571.7 43.35C567.3 43.35 563.8 45.45 561.2 49.65C558.7 53.75 557.45 59.45 557.45 66.75C557.45 74.45 558.55 80.35 560.75 84.45C563.05 88.55 566.6 90.6 571.4 90.6Z" fill="black"/>
</svg>
